<svg width="222" height="369" viewBox="0 0 222 369" fill="none" xmlns="http://www.w3.org/2000/svg">
<path d="M164.794 112.221L107.374 145.372L36.2226 22.1336C26.9299 6.03832 13.0514 -3.34583 5.1973 1.18876C-2.65683 5.72334 -1.46917 22.4345 7.82346 38.5299L78.9753 161.769L21.5559 194.92C14.0568 199.249 15.8406 216.378 25.5731 233.235C35.3056 250.093 49.2478 260.202 56.7469 255.872L114.166 222.721L185.318 345.96C194.611 362.055 208.489 371.439 216.343 366.905C224.198 362.37 223.01 345.659 213.717 329.564L142.565 206.325L199.985 173.174C207.484 168.844 205.7 151.715 195.968 134.858C186.235 118.001 172.293 107.892 164.794 112.221Z" fill="#00C35B"/>
</svg>
