<svg width="222" height="369" fill="none" xmlns="http://www.w3.org/2000/svg"><path d="M164.794 112.221l-57.42 33.151L36.223 22.134C26.93 6.038 13.05-3.346 5.197 1.189c-7.854 4.534-6.666 21.245 2.626 37.34l71.152 123.24-57.42 33.151c-7.498 4.329-5.714 21.458 4.018 38.315 9.733 16.858 23.675 26.967 31.174 22.637l57.419-33.151 71.152 123.239c9.293 16.095 23.171 25.479 31.025 20.945 7.855-4.535 6.667-21.246-2.626-37.341l-71.152-123.239 57.42-33.151c7.499-4.33 5.715-21.459-4.017-38.316-9.733-16.857-23.675-26.966-31.174-22.637z" fill="#00C35B"/></svg>