<svg width="38" height="38" viewBox="0 0 38 38" fill="none" xmlns="http://www.w3.org/2000/svg">
<path d="M7.65278 16.4561C10.6928 22.4306 15.58 27.3178 21.565 30.3578L26.2094 25.7028C26.79 25.1222 27.6239 24.9533 28.3522 25.1856C30.7167 25.9667 33.2606 26.3889 35.8889 26.3889C37.0606 26.3889 38 27.3283 38 28.5V35.8889C38 37.0606 37.0606 38 35.8889 38C16.0656 38 0 21.9344 0 2.11111C0 0.939444 0.95 0 2.11111 0H9.5C10.6717 0 11.6111 0.939444 11.6111 2.11111C11.6111 4.73944 12.0333 7.28333 12.8144 9.64778C13.0467 10.3761 12.8778 11.21 12.2972 11.7906L7.65278 16.4561Z" fill="#00C35B"/>
</svg>
