<svg width="28" height="33" fill="none" xmlns="http://www.w3.org/2000/svg"><path d="M20.429.642L13.38 3.207c-.467.17-.807.63-.946 1.28-.137.648-.062 1.433.21 2.18.272.748.719 1.398 1.242 1.806.523.408 1.079.542 1.546.372l2.795-1.017-2.64 12.409-9.181-7.171a2.112 2.112 0 00-.794-.403 1.293 1.293 0 00-.753.03c-.231.085-.434.24-.596.46-.162.22-.28.498-.35.82L.97 27.814c-.137.65-.06 1.433.212 2.179.272.746.718 1.394 1.24 1.801.522.408 1.077.542 1.544.373.467-.169.807-.627.946-1.273l2.424-11.395 9.182 7.17c.259.203.528.34.794.404.265.064.52.054.752-.03.232-.085.434-.241.596-.46a2.12 2.12 0 00.35-.82l3.16-14.856 1.627 4.471c.272.748.718 1.397 1.241 1.806.523.408 1.08.542 1.547.372.467-.17.807-.63.945-1.28.139-.648.063-1.433-.209-2.18L23.217 2.819a4.6 4.6 0 00-.527-1.03 3.49 3.49 0 00-.715-.776 2.11 2.11 0 00-.794-.403 1.292 1.292 0 00-.752.032z" fill="#00C35B"/></svg>