<svg width="37" height="33" fill="none" xmlns="http://www.w3.org/2000/svg"><path d="M8.822 11.798a1.8 1.8 0 00-1.442.041c-.449.214-.791.61-.952 1.1l-2.352 7.243c-.142.434-.133.913.028 1.354.16.44.46.813.848 1.054l6.457 4.036c.218.138.457.23.704.27a1.765 1.765 0 001.395-.357 1.84 1.84 0 00.478-.571 1.98 1.98 0 00.224-.73 2.127 2.127 0 00-.405-1.48 2.043 2.043 0 00-.568-.524L8.158 20.06l1.851-5.696a2.091 2.091 0 00-.098-1.52 2.045 2.045 0 00-1.089-1.046zm7.391-7.401a1.8 1.8 0 00-1.214.766 2.028 2.028 0 00-.32 1.464l3.318 20.08a2.112 2.112 0 00.775 1.316c.203.158.433.274.675.341a1.807 1.807 0 001.099-.04c.406-.15.745-.444.96-.834.213-.39.289-.852.213-1.307l-3.318-20.08a2.127 2.127 0 00-.266-.733 2.07 2.07 0 00-.509-.583 1.938 1.938 0 00-.675-.341 1.808 1.808 0 00-.738-.049zm15.233 5.823l-6.457-4.036a1.905 1.905 0 00-.704-.27 1.763 1.763 0 00-1.395.357 1.841 1.841 0 00-.478.572 1.98 1.98 0 00-.224.73 2.128 2.128 0 00.405 1.48c.157.211.35.39.568.524l5.08 3.174-1.852 5.696c-.08.244-.114.504-.098.765a2.127 2.127 0 00.64 1.395c.188.18.406.322.642.416.236.093.485.138.734.13a1.763 1.763 0 001.298-.623c.163-.19.287-.415.365-.66l2.352-7.242a2.077 2.077 0 00-.027-1.353 2.078 2.078 0 00-.849-1.055z" fill="#00C35B"/></svg>