<svg width="30" height="24" fill="none" xmlns="http://www.w3.org/2000/svg"><path d="M24.533 1.83C21.06.295 16.487-.316 11.99.154 5.935.786 1.073 3.525.165 6.813c-.74 2.685 1.04 5.365 4.761 7.172 1.677.813 2.689 1.986 2.85 3.3a.265.265 0 00.021.07v4.123c0 .227.343.412.768.412h.765c.31 1.195 1.95 2.11 3.926 2.11h3.485c1.974 0 3.613-.915 3.925-2.11h.765c.424 0 .768-.185.768-.412v-4.191c0-1.223 1.037-2.404 2.92-3.326C28.221 12.44 30 10.282 30 8.035c0-2.41-1.992-4.671-5.467-6.206zm-12.25 7.805h-1.179c-.65 0-1.18-.284-1.18-.632 0-.349.53-.632 1.18-.632.65 0 1.18.283 1.18.632v.632zm5.43-.632c0-.349.529-.632 1.18-.632.65 0 1.18.283 1.18.632 0 .348-.53.632-1.18.632h-1.179l-.001-.632zm-.462 8.665h3.413v3.4h-.703l-.005-.001H9.333v-3.399h7.351m-2.865-.822v-6.389h2.363l.017 6.389h-2.38zm2.921 6.331h-3.484c-1.146 0-2.107-.549-2.373-1.287h8.23c-.266.738-1.227 1.287-2.372 1.287zm7.344-9.824c-1.982.97-3.154 2.197-3.374 3.493h-2.976l-.017-6.389h1.176c1.497 0 2.715-.652 2.715-1.454 0-.802-1.218-1.455-2.715-1.455-1.498 0-2.715.653-2.715 1.455l.001.632h-2.36v-.632c0-.802-1.218-1.455-2.715-1.455-1.496 0-2.714.653-2.714 1.455s1.218 1.454 2.714 1.454h1.18v6.389H9.228c-.326-1.372-1.466-2.595-3.272-3.471-3.34-1.622-4.938-4.03-4.273-6.441.815-2.95 5.173-5.406 10.6-5.972 4.046-.422 8.155.125 11.273 1.502 3.12 1.377 4.908 3.408 4.908 5.571.001 2.017-1.596 3.955-4.38 5.318z" fill="#00C35B"/></svg>