<svg width="34" height="35" fill="none" xmlns="http://www.w3.org/2000/svg"><path d="M14.07 1.83L1.214 17.151c-1.768 2.107-1.375 5.373.872 7.259l10.213 8.57c2.248 1.886 5.532 1.705 7.3-.402l12.856-15.32c1.767-2.107 1.375-5.374-.872-7.26L21.37 1.429c-2.247-1.885-5.532-1.704-7.3.402zm7.21 3.44l-.935 12.106c-.095.736-.373 1.482-.855 2.057-.482.574-1.168.977-1.877 1.199l-11.76 3.022c-.628.126-1.322-.292-1.591-1.008-.168-.63.212-1.29.92-1.512l11.761-3.023c.446-.115.847-.594.884-1.053l.934-12.107c.096-.736.68-1.225 1.432-1.083.569.151 1.101.761 1.086 1.401z" fill="#00C35B"/></svg>