<svg width="42" height="42" viewBox="0 0 42 42" fill="none" xmlns="http://www.w3.org/2000/svg">
<mask id="path-1-inside-1_29_254" fill="white">
<path d="M21 0C9.53392 0 2.09979e-06 9.22841 2.09979e-06 21V21.0052C0.00444744 22.3149 0.130865 23.6231 0.377346 24.9069C0.411838 25.0864 0.476256 25.2549 0.566389 25.4012C0.656523 25.5475 0.770343 25.6684 0.900413 25.756C1.03048 25.8436 1.17387 25.8959 1.32121 25.9095C1.46856 25.9231 1.61653 25.8976 1.75547 25.8348C2.10613 25.6772 2.45813 25.5341 2.81778 25.4093C9.6356 23.1269 16.2295 27.1204 17.7064 34.0123C18.1263 35.99 18.0945 38.0883 17.608 40.1595C17.5645 40.3446 17.5541 40.5394 17.5776 40.7301C17.6012 40.9207 17.658 41.1026 17.7442 41.2626C17.8304 41.4227 17.9437 41.5571 18.0761 41.6561C18.2085 41.7552 18.3568 41.8166 18.5104 41.8359C19.3339 41.94 20.1618 41.9938 20.9918 42H21C32.4661 42 42 32.7716 42 21C42 9.22841 32.4661 0 21 0ZM21 2.625C31.5701 2.625 39.9 11.0254 39.9 21C39.9 30.9719 31.5742 39.3705 21.0082 39.375C20.5543 39.3716 20.1028 39.3179 19.6506 39.2827C19.9294 37.2883 20.1422 35.2651 19.7326 33.3354C17.9093 24.8272 10.0273 20.2895 2.28457 22.8765C2.21542 22.249 2.10214 21.6261 2.1 20.9949C2.10283 11.0225 10.4317 2.625 21 2.625ZM19.95 5.25C18.2227 5.25 16.8 7.02842 16.8 9.1875C16.8 11.3466 18.2227 13.125 19.95 13.125C21.6773 13.125 23.1 11.3466 23.1 9.1875C23.1 7.02842 21.6773 5.25 19.95 5.25ZM11.55 7.875C9.82274 7.875 8.4 9.65342 8.4 11.8125C8.4 13.9716 9.82274 15.75 11.55 15.75C13.2773 15.75 14.7 13.9716 14.7 11.8125C14.7 9.65342 13.2773 7.875 11.55 7.875ZM19.95 7.875C20.5423 7.875 21 8.44708 21 9.1875C21 9.92792 20.5423 10.5 19.95 10.5C19.3577 10.5 18.9 9.92792 18.9 9.1875C18.9 8.44708 19.3577 7.875 19.95 7.875ZM28.35 7.875C26.6227 7.875 25.2 9.65342 25.2 11.8125C25.2 13.9716 26.6227 15.75 28.35 15.75C30.0773 15.75 31.5 13.9716 31.5 11.8125C31.5 9.65342 30.0773 7.875 28.35 7.875ZM11.55 10.5C12.1423 10.5 12.6 11.0721 12.6 11.8125C12.6 12.5529 12.1423 13.125 11.55 13.125C10.9577 13.125 10.5 12.5529 10.5 11.8125C10.5 11.0721 10.9577 10.5 11.55 10.5ZM28.35 10.5C28.9423 10.5 29.4 11.0721 29.4 11.8125C29.4 12.5529 28.9423 13.125 28.35 13.125C27.7577 13.125 27.3 12.5529 27.3 11.8125C27.3 11.0721 27.7577 10.5 28.35 10.5ZM34.65 15.75C32.9227 15.75 31.5 17.5284 31.5 19.6875C31.5 21.8466 32.9227 23.625 34.65 23.625C36.3773 23.625 37.8 21.8466 37.8 19.6875C37.8 17.5284 36.3773 15.75 34.65 15.75ZM34.65 18.375C35.2423 18.375 35.7 18.9471 35.7 19.6875C35.7 20.4279 35.2423 21 34.65 21C34.0577 21 33.6 20.4279 33.6 19.6875C33.6 18.9471 34.0577 18.375 34.65 18.375ZM28.35 26.25C26.6227 26.25 25.2 28.0284 25.2 30.1875C25.2 32.3466 26.6227 34.125 28.35 34.125C30.0773 34.125 31.5 32.3466 31.5 30.1875C31.5 28.0284 30.0773 26.25 28.35 26.25ZM28.35 28.875C28.9423 28.875 29.4 29.4471 29.4 30.1875C29.4 30.9279 28.9423 31.5 28.35 31.5C27.7577 31.5 27.3 30.9279 27.3 30.1875C27.3 29.4471 27.7577 28.875 28.35 28.875Z"/>
</mask>
<path d="M21 0C9.53392 0 2.09979e-06 9.22841 2.09979e-06 21V21.0052C0.00444744 22.3149 0.130865 23.6231 0.377346 24.9069C0.411838 25.0864 0.476256 25.2549 0.566389 25.4012C0.656523 25.5475 0.770343 25.6684 0.900413 25.756C1.03048 25.8436 1.17387 25.8959 1.32121 25.9095C1.46856 25.9231 1.61653 25.8976 1.75547 25.8348C2.10613 25.6772 2.45813 25.5341 2.81778 25.4093C9.6356 23.1269 16.2295 27.1204 17.7064 34.0123C18.1263 35.99 18.0945 38.0883 17.608 40.1595C17.5645 40.3446 17.5541 40.5394 17.5776 40.7301C17.6012 40.9207 17.658 41.1026 17.7442 41.2626C17.8304 41.4227 17.9437 41.5571 18.0761 41.6561C18.2085 41.7552 18.3568 41.8166 18.5104 41.8359C19.3339 41.94 20.1618 41.9938 20.9918 42H21C32.4661 42 42 32.7716 42 21C42 9.22841 32.4661 0 21 0ZM21 2.625C31.5701 2.625 39.9 11.0254 39.9 21C39.9 30.9719 31.5742 39.3705 21.0082 39.375C20.5543 39.3716 20.1028 39.3179 19.6506 39.2827C19.9294 37.2883 20.1422 35.2651 19.7326 33.3354C17.9093 24.8272 10.0273 20.2895 2.28457 22.8765C2.21542 22.249 2.10214 21.6261 2.1 20.9949C2.10283 11.0225 10.4317 2.625 21 2.625ZM19.95 5.25C18.2227 5.25 16.8 7.02842 16.8 9.1875C16.8 11.3466 18.2227 13.125 19.95 13.125C21.6773 13.125 23.1 11.3466 23.1 9.1875C23.1 7.02842 21.6773 5.25 19.95 5.25ZM11.55 7.875C9.82274 7.875 8.4 9.65342 8.4 11.8125C8.4 13.9716 9.82274 15.75 11.55 15.75C13.2773 15.75 14.7 13.9716 14.7 11.8125C14.7 9.65342 13.2773 7.875 11.55 7.875ZM19.95 7.875C20.5423 7.875 21 8.44708 21 9.1875C21 9.92792 20.5423 10.5 19.95 10.5C19.3577 10.5 18.9 9.92792 18.9 9.1875C18.9 8.44708 19.3577 7.875 19.95 7.875ZM28.35 7.875C26.6227 7.875 25.2 9.65342 25.2 11.8125C25.2 13.9716 26.6227 15.75 28.35 15.75C30.0773 15.75 31.5 13.9716 31.5 11.8125C31.5 9.65342 30.0773 7.875 28.35 7.875ZM11.55 10.5C12.1423 10.5 12.6 11.0721 12.6 11.8125C12.6 12.5529 12.1423 13.125 11.55 13.125C10.9577 13.125 10.5 12.5529 10.5 11.8125C10.5 11.0721 10.9577 10.5 11.55 10.5ZM28.35 10.5C28.9423 10.5 29.4 11.0721 29.4 11.8125C29.4 12.5529 28.9423 13.125 28.35 13.125C27.7577 13.125 27.3 12.5529 27.3 11.8125C27.3 11.0721 27.7577 10.5 28.35 10.5ZM34.65 15.75C32.9227 15.75 31.5 17.5284 31.5 19.6875C31.5 21.8466 32.9227 23.625 34.65 23.625C36.3773 23.625 37.8 21.8466 37.8 19.6875C37.8 17.5284 36.3773 15.75 34.65 15.75ZM34.65 18.375C35.2423 18.375 35.7 18.9471 35.7 19.6875C35.7 20.4279 35.2423 21 34.65 21C34.0577 21 33.6 20.4279 33.6 19.6875C33.6 18.9471 34.0577 18.375 34.65 18.375ZM28.35 26.25C26.6227 26.25 25.2 28.0284 25.2 30.1875C25.2 32.3466 26.6227 34.125 28.35 34.125C30.0773 34.125 31.5 32.3466 31.5 30.1875C31.5 28.0284 30.0773 26.25 28.35 26.25ZM28.35 28.875C28.9423 28.875 29.4 29.4471 29.4 30.1875C29.4 30.9279 28.9423 31.5 28.35 31.5C27.7577 31.5 27.3 30.9279 27.3 30.1875C27.3 29.4471 27.7577 28.875 28.35 28.875Z" fill="#00C35B"/>
<path d="M2.09979e-06 21.0052H-4.00002L-3.99997 21.0188L2.09979e-06 21.0052ZM0.377346 24.9069L-3.5509 25.6611L-3.55085 25.6614L0.377346 24.9069ZM1.75547 25.8348L0.115452 22.1865L0.108171 22.1898L1.75547 25.8348ZM2.81778 25.4093L1.54797 21.6162L1.52697 21.6232L1.50605 21.6305L2.81778 25.4093ZM17.7064 34.0123L21.6193 33.1817L21.6176 33.1742L17.7064 34.0123ZM17.608 40.1595L21.5017 41.0756L21.502 41.0742L17.608 40.1595ZM18.5104 41.8359L19.0119 37.8675L19.0094 37.8672L18.5104 41.8359ZM20.9918 42L20.9618 45.9999L20.9768 46H20.9918V42ZM21.0082 39.375L20.9781 43.3749L20.994 43.375L21.0099 43.375L21.0082 39.375ZM19.6506 39.2827L15.6891 38.7289L15.1003 42.9403L19.3399 43.2706L19.6506 39.2827ZM19.7326 33.3354L23.6454 32.5048L23.6438 32.4973L19.7326 33.3354ZM2.28457 22.8765L-1.69135 23.3147L-1.14843 28.2408L3.55213 26.6703L2.28457 22.8765ZM2.1 20.9949L-1.9 20.9937L-1.9 21.0011L-1.89998 21.0084L2.1 20.9949ZM21 0V-4C7.3628 -4 -4 6.98144 -4 21H2.09979e-06H4C4 11.4754 11.705 4 21 4V0ZM2.09979e-06 21H-4V21.0052H2.09979e-06H4V21H2.09979e-06ZM2.09979e-06 21.0052L-3.99997 21.0188C-3.99469 22.5763 -3.8444 24.1324 -3.5509 25.6611L0.377346 24.9069L4.30559 24.1526C4.10613 23.1138 4.00358 22.0536 3.99998 20.9917L2.09979e-06 21.0052ZM0.377346 24.9069L-3.55085 25.6614C-3.43088 26.286 -3.19944 26.9145 -2.83935 27.4991L0.566389 25.4012L3.97213 23.3034C4.15195 23.5953 4.25455 23.8869 4.30554 24.1523L0.377346 24.9069ZM0.566389 25.4012L-2.83935 27.4991C-2.47912 28.0839 -1.98065 28.6383 -1.33375 29.0739L0.900413 25.756L3.13457 22.4381C3.52133 22.6985 3.79216 23.0112 3.97213 23.3034L0.566389 25.4012ZM0.900413 25.756L-1.33375 29.0739C-0.681375 29.5132 0.0983629 29.8137 0.954107 29.8926L1.32121 25.9095L1.68832 21.9264C2.24938 21.9781 2.74234 22.174 3.13457 22.4381L0.900413 25.756ZM1.32121 25.9095L0.954107 29.8926C1.81246 29.9717 2.653 29.8187 3.40277 29.4799L1.75547 25.8348L0.108171 22.1898C0.580058 21.9765 1.12465 21.8744 1.68832 21.9264L1.32121 25.9095ZM1.75547 25.8348L3.39549 29.4832C3.6589 29.3648 3.90028 29.2677 4.1295 29.1881L2.81778 25.4093L1.50605 21.6305C1.01598 21.8006 0.553367 21.9896 0.115455 22.1865L1.75547 25.8348ZM2.81778 25.4093L4.08758 29.2024C8.55214 27.7078 12.7981 30.1973 13.7952 34.8505L17.7064 34.0123L21.6176 33.1742C19.661 24.0436 10.7191 18.546 1.54797 21.6162L2.81778 25.4093ZM17.7064 34.0123L13.7936 34.8429C14.0855 36.218 14.0722 37.7199 13.714 39.2449L17.608 40.1595L21.502 41.0742C22.1168 38.4567 22.167 35.762 21.6193 33.1817L17.7064 34.0123ZM17.608 40.1595L13.7143 39.2435C13.5613 39.8939 13.5269 40.565 13.6078 41.2202L17.5776 40.7301L21.5475 40.24C21.5813 40.5139 21.5676 40.7953 21.5017 41.0756L17.608 40.1595ZM17.5776 40.7301L13.6078 41.2202C13.6886 41.8748 13.8876 42.5372 14.222 43.1585L17.7442 41.2626L21.2664 39.3668C21.4285 39.6679 21.5138 39.9667 21.5475 40.24L17.5776 40.7301ZM17.7442 41.2626L14.222 43.1585C14.5563 43.7796 15.0369 44.3779 15.6797 44.8588L18.0761 41.6561L20.4725 38.4535C20.8504 38.7362 21.1044 39.0658 21.2664 39.3668L17.7442 41.2626ZM18.0761 41.6561L15.6797 44.8588C16.328 45.3439 17.1223 45.6929 18.0113 45.8047L18.5104 41.8359L19.0094 37.8672C19.5913 37.9403 20.089 38.1665 20.4725 38.4535L18.0761 41.6561ZM18.5104 41.8359L18.0088 45.8044C18.9934 45.9288 19.9789 45.9925 20.9618 45.9999L20.9918 42L21.0218 38.0001C20.3448 37.995 19.6744 37.9512 19.0119 37.8675L18.5104 41.8359ZM20.9918 42V46H21V42V38H20.9918V42ZM21 42V46C34.6372 46 46 35.0185 46 21H42H38C38 30.5246 30.295 38 21 38V42ZM42 21H46C46 6.98144 34.6372 -4 21 -4V0V4C30.295 4 38 11.4754 38 21H42ZM21 2.625V6.625C29.4247 6.625 35.9 13.2977 35.9 21H39.9H43.9C43.9 8.75302 33.7155 -1.375 21 -1.375V2.625ZM39.9 21H35.9C35.9 28.7001 29.4279 35.3714 21.0065 35.375L21.0082 39.375L21.0099 43.375C33.7205 43.3695 43.9 33.2438 43.9 21H39.9ZM21.0082 39.375L21.0383 35.3751C20.7712 35.3731 20.63 35.3469 19.9613 35.2948L19.6506 39.2827L19.3399 43.2706C19.5756 43.289 20.3375 43.3701 20.9781 43.3749L21.0082 39.375ZM19.6506 39.2827L23.6121 39.8365C23.8902 37.847 24.2161 35.193 23.6454 32.5048L19.7326 33.3354L15.8198 34.166C16.0684 35.3372 15.9686 36.7296 15.6891 38.7289L19.6506 39.2827ZM19.7326 33.3354L23.6438 32.4973C21.3477 21.7823 11.142 15.6998 1.01701 19.0826L2.28457 22.8765L3.55213 26.6703C8.91267 24.8793 14.471 27.872 15.8214 34.1736L19.7326 33.3354ZM2.28457 22.8765L6.2605 22.4383C6.14979 21.4337 6.10117 21.3323 6.09998 20.9813L2.1 20.9949L-1.89998 21.0084C-1.89688 21.9199 -1.71895 23.0642 -1.69135 23.3147L2.28457 22.8765ZM2.1 20.9949L6.1 20.996C6.10218 13.2954 12.5767 6.625 21 6.625V2.625V-1.375C8.28667 -1.375 -1.89653 8.74952 -1.9 20.9937L2.1 20.9949ZM19.95 5.25V1.25C15.2268 1.25 12.8 5.69834 12.8 9.1875H16.8H20.8C20.8 8.96606 20.8771 8.87489 20.8508 8.90788C20.8329 8.93021 20.7622 9.01072 20.6099 9.09188C20.4491 9.17755 20.2199 9.25 19.95 9.25V5.25ZM16.8 9.1875H12.8C12.8 12.6767 15.2268 17.125 19.95 17.125V13.125V9.125C20.2199 9.125 20.4491 9.19744 20.6099 9.28312C20.7622 9.36427 20.8329 9.44479 20.8508 9.46712C20.8771 9.50011 20.8 9.40894 20.8 9.1875H16.8ZM19.95 13.125V17.125C24.6732 17.125 27.1 12.6767 27.1 9.1875H23.1H19.1C19.1 9.40894 19.0229 9.5001 19.0492 9.46712C19.0671 9.44479 19.1378 9.36427 19.2901 9.28312C19.4509 9.19744 19.6801 9.125 19.95 9.125V13.125ZM23.1 9.1875H27.1C27.1 5.69834 24.6732 1.25 19.95 1.25V5.25V9.25C19.6801 9.25 19.4509 9.17755 19.2901 9.09188C19.1378 9.01072 19.0671 8.93021 19.0492 8.90788C19.0229 8.87489 19.1 8.96606 19.1 9.1875H23.1ZM11.55 7.875V3.875C6.82681 3.875 4.4 8.32334 4.4 11.8125H8.4H12.4C12.4 11.5911 12.4771 11.4999 12.4508 11.5329C12.4329 11.5552 12.3622 11.6357 12.2099 11.7169C12.0491 11.8026 11.8199 11.875 11.55 11.875V7.875ZM8.4 11.8125H4.4C4.4 15.3017 6.82681 19.75 11.55 19.75V15.75V11.75C11.8199 11.75 12.0491 11.8224 12.2099 11.9081C12.3622 11.9893 12.4329 12.0698 12.4508 12.0921C12.4771 12.1251 12.4 12.0339 12.4 11.8125H8.4ZM11.55 15.75V19.75C16.2732 19.75 18.7 15.3017 18.7 11.8125H14.7H10.7C10.7 12.0339 10.6229 12.1251 10.6492 12.0921C10.6671 12.0698 10.7378 11.9893 10.8901 11.9081C11.0509 11.8224 11.2801 11.75 11.55 11.75V15.75ZM14.7 11.8125H18.7C18.7 8.32334 16.2732 3.875 11.55 3.875V7.875V11.875C11.2801 11.875 11.0509 11.8026 10.8901 11.7169C10.7378 11.6357 10.6671 11.5552 10.6492 11.5329C10.6229 11.4999 10.7 11.5911 10.7 11.8125H14.7ZM19.95 7.875V11.875C18.8655 11.875 18.0345 11.3284 17.5737 10.7524C17.1327 10.2011 17 9.62101 17 9.1875H21H25C25 7.117 23.5383 3.875 19.95 3.875V7.875ZM21 9.1875H17C17 8.75399 17.1327 8.17386 17.5737 7.62262C18.0345 7.04659 18.8655 6.5 19.95 6.5V10.5V14.5C23.5383 14.5 25 11.258 25 9.1875H21ZM19.95 10.5V6.5C21.0345 6.5 21.8655 7.04659 22.3263 7.62262C22.7673 8.17386 22.9 8.75399 22.9 9.1875H18.9H14.9C14.9 11.258 16.3617 14.5 19.95 14.5V10.5ZM18.9 9.1875H22.9C22.9 9.62101 22.7673 10.2011 22.3263 10.7524C21.8655 11.3284 21.0345 11.875 19.95 11.875V7.875V3.875C16.3617 3.875 14.9 7.117 14.9 9.1875H18.9ZM28.35 7.875V3.875C23.6268 3.875 21.2 8.32334 21.2 11.8125H25.2H29.2C29.2 11.5911 29.2771 11.4999 29.2508 11.5329C29.2329 11.5552 29.1622 11.6357 29.0099 11.7169C28.8491 11.8026 28.6199 11.875 28.35 11.875V7.875ZM25.2 11.8125H21.2C21.2 15.3017 23.6268 19.75 28.35 19.75V15.75V11.75C28.6199 11.75 28.8491 11.8224 29.0099 11.9081C29.1622 11.9893 29.2329 12.0698 29.2508 12.0921C29.2771 12.1251 29.2 12.0339 29.2 11.8125H25.2ZM28.35 15.75V19.75C33.0732 19.75 35.5 15.3017 35.5 11.8125H31.5H27.5C27.5 12.0339 27.4229 12.1251 27.4492 12.0921C27.4671 12.0698 27.5378 11.9893 27.6901 11.9081C27.8509 11.8224 28.0801 11.75 28.35 11.75V15.75ZM31.5 11.8125H35.5C35.5 8.32334 33.0732 3.875 28.35 3.875V7.875V11.875C28.0801 11.875 27.8509 11.8026 27.6901 11.7169C27.5378 11.6357 27.4671 11.5552 27.4492 11.5329C27.4229 11.4999 27.5 11.5911 27.5 11.8125H31.5ZM11.55 10.5V14.5C10.4655 14.5 9.63448 13.9534 9.17365 13.3774C8.73266 12.8261 8.6 12.246 8.6 11.8125H12.6H16.6C16.6 9.74199 15.1383 6.5 11.55 6.5V10.5ZM12.6 11.8125H8.6C8.6 11.379 8.73266 10.7989 9.17365 10.2476C9.63448 9.67159 10.4655 9.125 11.55 9.125V13.125V17.125C15.1383 17.125 16.6 13.883 16.6 11.8125H12.6ZM11.55 13.125V9.125C12.6345 9.125 13.4655 9.67159 13.9264 10.2476C14.3673 10.7989 14.5 11.379 14.5 11.8125H10.5H6.5C6.5 13.883 7.96173 17.125 11.55 17.125V13.125ZM10.5 11.8125H14.5C14.5 12.246 14.3673 12.8261 13.9264 13.3774C13.4655 13.9534 12.6345 14.5 11.55 14.5V10.5V6.5C7.96173 6.5 6.5 9.74199 6.5 11.8125H10.5ZM28.35 10.5V14.5C27.2655 14.5 26.4345 13.9534 25.9737 13.3774C25.5327 12.8261 25.4 12.246 25.4 11.8125H29.4H33.4C33.4 9.74199 31.9383 6.5 28.35 6.5V10.5ZM29.4 11.8125H25.4C25.4 11.379 25.5327 10.7989 25.9737 10.2476C26.4345 9.67159 27.2655 9.125 28.35 9.125V13.125V17.125C31.9383 17.125 33.4 13.883 33.4 11.8125H29.4ZM28.35 13.125V9.125C29.4345 9.125 30.2655 9.67159 30.7263 10.2476C31.1673 10.7989 31.3 11.379 31.3 11.8125H27.3H23.3C23.3 13.883 24.7617 17.125 28.35 17.125V13.125ZM27.3 11.8125H31.3C31.3 12.246 31.1673 12.8261 30.7263 13.3774C30.2655 13.9534 29.4345 14.5 28.35 14.5V10.5V6.5C24.7617 6.5 23.3 9.74199 23.3 11.8125H27.3ZM34.65 15.75V11.75C29.9268 11.75 27.5 16.1983 27.5 19.6875H31.5H35.5C35.5 19.4661 35.5771 19.3749 35.5508 19.4079C35.5329 19.4302 35.4622 19.5107 35.3099 19.5919C35.1491 19.6775 34.9199 19.75 34.65 19.75V15.75ZM31.5 19.6875H27.5C27.5 23.1767 29.9268 27.625 34.65 27.625V23.625V19.625C34.9199 19.625 35.1491 19.6974 35.3099 19.7831C35.4622 19.8643 35.5329 19.9448 35.5508 19.9671C35.5771 20.0001 35.5 19.9089 35.5 19.6875H31.5ZM34.65 23.625V27.625C39.3732 27.625 41.8 23.1767 41.8 19.6875H37.8H33.8C33.8 19.9089 33.7229 20.0001 33.7492 19.9671C33.7671 19.9448 33.8378 19.8643 33.9901 19.7831C34.1509 19.6974 34.3801 19.625 34.65 19.625V23.625ZM37.8 19.6875H41.8C41.8 16.1983 39.3732 11.75 34.65 11.75V15.75V19.75C34.3801 19.75 34.1509 19.6775 33.9901 19.5919C33.8378 19.5107 33.7671 19.4302 33.7492 19.4079C33.7229 19.3749 33.8 19.4661 33.8 19.6875H37.8ZM34.65 18.375V22.375C33.5655 22.375 32.7345 21.8284 32.2737 21.2524C31.8327 20.7011 31.7 20.121 31.7 19.6875H35.7H39.7C39.7 17.617 38.2383 14.375 34.65 14.375V18.375ZM35.7 19.6875H31.7C31.7 19.254 31.8327 18.6739 32.2737 18.1226C32.7345 17.5466 33.5655 17 34.65 17V21V25C38.2383 25 39.7 21.758 39.7 19.6875H35.7ZM34.65 21V17C35.7345 17 36.5655 17.5466 37.0264 18.1226C37.4673 18.6739 37.6 19.254 37.6 19.6875H33.6H29.6C29.6 21.758 31.0617 25 34.65 25V21ZM33.6 19.6875H37.6C37.6 20.121 37.4673 20.7011 37.0264 21.2524C36.5655 21.8284 35.7345 22.375 34.65 22.375V18.375V14.375C31.0617 14.375 29.6 17.617 29.6 19.6875H33.6ZM28.35 26.25V22.25C23.6268 22.25 21.2 26.6983 21.2 30.1875H25.2H29.2C29.2 29.966 29.2771 29.8749 29.2508 29.9079C29.2329 29.9302 29.1622 30.0107 29.0099 30.0919C28.8491 30.1775 28.6199 30.25 28.35 30.25V26.25ZM25.2 30.1875H21.2C21.2 33.6766 23.6268 38.125 28.35 38.125V34.125V30.125C28.6199 30.125 28.8491 30.1974 29.0099 30.2831C29.1622 30.3643 29.2329 30.4448 29.2508 30.4671C29.2771 30.5001 29.2 30.4089 29.2 30.1875H25.2ZM28.35 34.125V38.125C33.0732 38.125 35.5 33.6766 35.5 30.1875H31.5H27.5C27.5 30.4089 27.4229 30.5001 27.4492 30.4671C27.4671 30.4448 27.5378 30.3643 27.6901 30.2831C27.8509 30.1974 28.0801 30.125 28.35 30.125V34.125ZM31.5 30.1875H35.5C35.5 26.6983 33.0732 22.25 28.35 22.25V26.25V30.25C28.0801 30.25 27.8509 30.1775 27.6901 30.0919C27.5378 30.0107 27.4671 29.9302 27.4492 29.9079C27.4229 29.8749 27.5 29.9661 27.5 30.1875H31.5ZM28.35 28.875V32.875C27.2655 32.875 26.4345 32.3284 25.9737 31.7524C25.5327 31.2011 25.4 30.621 25.4 30.1875H29.4H33.4C33.4 28.117 31.9383 24.875 28.35 24.875V28.875ZM29.4 30.1875H25.4C25.4 29.754 25.5327 29.1739 25.9737 28.6226C26.4345 28.0466 27.2655 27.5 28.35 27.5V31.5V35.5C31.9383 35.5 33.4 32.258 33.4 30.1875H29.4ZM28.35 31.5V27.5C29.4345 27.5 30.2655 28.0466 30.7263 28.6226C31.1673 29.1739 31.3 29.754 31.3 30.1875H27.3H23.3C23.3 32.258 24.7617 35.5 28.35 35.5V31.5ZM27.3 30.1875H31.3C31.3 30.621 31.1673 31.2011 30.7263 31.7524C30.2655 32.3284 29.4345 32.875 28.35 32.875V28.875V24.875C24.7617 24.875 23.3 28.117 23.3 30.1875H27.3Z" fill="#00C35B" mask="url(#path-1-inside-1_29_254)"/>
</svg>
