<svg width="39" height="39" viewBox="0 0 39 39" fill="none" xmlns="http://www.w3.org/2000/svg">
<rect width="39" height="39" rx="19.5" fill="#00C35B"/>
<rect width="30" height="31" transform="translate(4 4)" fill="#00C35B"/>
<path d="M22.9082 11.7742L28.7852 18.1316C29.1367 18.4828 29.3125 18.9611 29.3125 19.4878C29.3125 20.0146 29.1367 20.4869 28.7852 20.8441L22.9082 27.2257C22.2109 27.9826 21.0742 27.9826 20.377 27.2257C19.6797 26.4689 19.6797 25.2458 20.377 24.489L23.2012 21.4375H10.4863C9.49023 21.4375 8.6875 20.5716 8.6875 19.5C8.6875 18.4283 9.49023 17.5625 10.4805 17.5625H23.1953L20.3711 14.5109C19.6738 13.7541 19.6738 12.531 20.3711 11.7742C21.0742 11.0173 22.2051 11.0173 22.9082 11.7742Z" fill="white"/>
</svg>
