<svg width="46" height="46" fill="none" xmlns="http://www.w3.org/2000/svg"><path d="M28.066 45.775a1.815 1.815 0 01-1.427-.179 1.861 1.861 0 01-.856-1.17 2.018 2.018 0 01.215-1.477 1.97 1.97 0 011.16-.917c4.098-1.17 7.736-3.713 10.331-7.221a20.328 20.328 0 003.984-12.13c-.014-4.349-1.445-8.524-4.063-11.858A18.07 18.07 0 0027.034 4.3c-4.104-.894-8.421-.333-12.259 1.594-3.837 1.928-6.974 5.109-8.907 9.034-1.932 3.925-2.55 8.367-1.752 12.615.797 4.247 2.963 8.054 6.15 10.81.376.326.607.796.643 1.307a2.03 2.03 0 01-1.033 1.908 1.888 1.888 0 01-.713.226 1.815 1.815 0 01-1.376-.431C3.963 38.054 1.364 33.487.407 28.39-.55 23.293.191 17.963 2.51 13.253c2.318-4.71 6.082-8.528 10.686-10.84C17.801.098 22.98-.576 27.906.495c4.924 1.072 9.309 3.828 12.451 7.827 3.142 4 4.86 9.01 4.879 14.228a24.394 24.394 0 01-4.777 14.555c-3.113 4.211-7.477 7.264-12.393 8.669z" fill="#00C35B"/><path d="M15.222 39.343l-9.147 2.613a1.815 1.815 0 01-1.426-.178 1.861 1.861 0 01-.857-1.17 2.018 2.018 0 01.215-1.477 1.97 1.97 0 011.16-.918l7.319-2.09-1.815-7.486a2.018 2.018 0 01.215-1.477 1.97 1.97 0 011.16-.917 1.816 1.816 0 011.427.178c.428.253.736.674.857 1.17l2.268 9.358a2.02 2.02 0 01-.215 1.477 1.97 1.97 0 01-1.16.917zm3.768-7.227a1.868 1.868 0 01-.803.103 1.795 1.795 0 01-.759-.25 1.962 1.962 0 01-.6-.569 2.285 2.285 0 01-.346-.798 2.658 2.658 0 01.236-1.779l4.062-7.87-2.295-10.166a2.637 2.637 0 01.23-1.77c.282-.546.737-.957 1.267-1.142a1.816 1.816 0 011.558.156c.468.284.806.774.939 1.361l2.5 11.074c.067.291.082.598.044.902-.039.305-.13.602-.268.873l-4.491 8.737c-.14.27-.325.51-.543.705a2.138 2.138 0 01-.73.433z" fill="#00C35B"/></svg>