<svg width="52" height="52" fill="none" xmlns="http://www.w3.org/2000/svg"><path clip-rule="evenodd" d="M38.051 13.373c4.948 3.226 9.058 5.45 10.537 11.651 2.302 9.65-5.658 19.886-17.776 22.932a13.375 13.375 0 01-.549.133C18.089 50.9 6.379 45.41 4.077 35.759a14.658 14.658 0 01-.338-4.702l.256-2.893c1.592.546 3.291.947 5.096 1.203 1.804.255 2.85.193 3.136-.188-.431-3.47-.71-6.368-.836-8.694-.416-7.67 4.28-13.28 14.09-16.83l-.214 2.195c-.504 5.174.566 8.203 1.551 9.833 1.057 1.748 3.052 3.182 4.6 3.118 3.453-.142 4.972-2.403 4.557-6.782l2.076 1.354z" stroke="#00C35B" stroke-width="6" stroke-linecap="round" stroke-linejoin="round"/><path clip-rule="evenodd" d="M24.77 32.178c-3.495 3.962-3.6 7.294-.313 9.997 2.363 1.942 6.649 1.796 9.58-.326a5.06 5.06 0 00.13-.097c2.874-2.17 3.294-5.494.925-7.441-1.014-.834-4.455-1.545-10.322-2.133z" stroke="#00C35B" stroke-width="6" stroke-linecap="round" stroke-linejoin="round"/></svg>