<svg width="53" height="53" fill="none" xmlns="http://www.w3.org/2000/svg"><path opacity=".6" d="M4.297 16.002L.925 35.129a10.79 10.79 0 008.752 12.5l25.504 4.497a10.79 10.79 0 0012.5-8.753l3.372-19.127-46.756-8.244zm17.905 19.131a2.157 2.157 0 01-.532 3.018 2.159 2.159 0 01-3.018-.532l-3.501-5a2.157 2.157 0 01.532-3.018l5-3.5a2.167 2.167 0 012.486 3.55l-3.247 2.254 2.28 3.228zM35.17 36.15l-5 3.501a2.157 2.157 0 01-3.018-.532 2.158 2.158 0 01.532-3.018l3.246-2.254-2.28-3.229a2.167 2.167 0 013.55-2.486l3.502 5a2.157 2.157 0 01-.532 3.018zm16.632-16.154L5.047 11.751l.375-2.125a10.79 10.79 0 0112.5-8.753L43.425 5.37a10.79 10.79 0 018.752 12.5l-.374 2.125z" fill="#00C35B"/></svg>