<svg width="56" height="56" fill="none" xmlns="http://www.w3.org/2000/svg"><path d="M18.842 2.406C33.096-2.782 48.9 4.587 54.089 18.842c5.188 14.254-2.181 30.058-16.436 35.247C23.4 59.277 7.595 51.907 2.406 37.653-2.782 23.4 4.587 7.594 18.842 2.406zm-6.854 43.418c5.455 5 13.068 7.374 20.62 5.947a39.81 39.81 0 01-10.147-9.853l-10.473 3.906zm13.974-5.18c2.593 3.492 5.86 6.504 9.715 8.924a37.473 37.473 0 001.716-13.18l-11.431 4.255zm14.876-5.556a39.108 39.108 0 01-1.432 14.35A24.01 24.01 0 0052.02 30.923l-11.181 4.165zm-36.51-6.16A23.58 23.58 0 005.74 36.44c.88 2.418 2.105 4.615 3.66 6.551l11.097-4.134a40.813 40.813 0 01-5.04-13.977L4.328 28.93zm14.505-5.279a36.454 36.454 0 005.082 13.963l13.14-4.877c-.793-4.903-2.508-9.614-5.135-13.85L18.833 23.65zm16.464-5.992c2.544 4.266 4.284 8.92 5.119 13.808l11.766-4.377a24.735 24.735 0 00-1.427-7.033 23.582 23.582 0 00-3.746-6.66l-11.712 4.262zM16.467 7.424C9.807 11.17 5.51 17.784 4.532 25.079l10.503-3.823c-.35-4.593.126-9.25 1.432-13.832zm3.767-.286a36.648 36.648 0 00-1.74 12.859l11.337-4.127a36.646 36.646 0 00-9.597-8.732zm24.144 3.438a23.85 23.85 0 00-21.204-5.735 40.789 40.789 0 0110.117 9.77l11.087-4.035z" fill="#00C35B"/></svg>