<svg width="42" height="42" fill="none" xmlns="http://www.w3.org/2000/svg"><path d="M10.244 42H4.026c-.91 0-1.647-.673-1.647-1.485v-11.47c0-.82.746-1.485 1.647-1.485h6.218c.91 0 1.648.673 1.648 1.486v11.469c.009.82-.738 1.485-1.648 1.485zm13.573 0h-5.626c-1.065 0-1.948-.788-1.948-1.756V23.697c0-.96.874-1.756 1.948-1.756h5.626c1.065 0 1.948.787 1.948 1.756v16.547c0 .968-.874 1.756-1.948 1.756zm13.619 0h-5.125c-1.21 0-2.194-.894-2.194-1.977V18.405c0-1.091.992-1.977 2.194-1.977h5.125c1.21 0 2.194.894 2.194 1.977v21.618c0 1.091-.983 1.977-2.194 1.977zM38.219.003c-2.003.074-3.56 1.6-3.477 3.413l-9.25 8.196-7.883-6.22-14.43 13.046C1.324 18.65-.07 20.095.004 21.81c.082 1.804 1.784 3.207 3.787 3.134 2.003-.074 3.56-1.608 3.477-3.413-.009-.148-.045-.288-.073-.435l10.86-9.394 7.62 6.014L38.301 6.542c.073 0 .146.016.218.008 2.003-.074 3.56-1.608 3.478-3.413-.082-1.805-1.775-3.208-3.778-3.134z" fill="#05A14E"/></svg>