<svg width="42" height="42" fill="none" xmlns="http://www.w3.org/2000/svg"><mask id="a" fill="#fff"><path d="M21 0C9.534 0 0 9.228 0 21v.005c.004 1.31.13 2.618.377 3.902.035.18.1.348.19.494.09.146.203.267.333.355a.858.858 0 00.855.079c.351-.158.703-.3 1.063-.426 6.818-2.282 13.412 1.711 14.888 8.603.42 1.978.389 4.076-.098 6.148a1.606 1.606 0 00.136 1.103c.086.16.2.294.332.393.133.1.28.16.434.18.824.104 1.652.158 2.482.164H21c11.466 0 21-9.228 21-21S32.466 0 21 0zm0 2.625c10.57 0 18.9 8.4 18.9 18.375 0 9.972-8.326 18.37-18.892 18.375-.454-.003-.905-.057-1.357-.092.278-1.995.491-4.018.082-5.948-1.824-8.508-9.706-13.046-17.448-10.459-.07-.627-.183-1.25-.185-1.881.003-9.973 8.332-18.37 18.9-18.37zM19.95 5.25c-1.727 0-3.15 1.778-3.15 3.938 0 2.159 1.423 3.937 3.15 3.937 1.727 0 3.15-1.778 3.15-3.938 0-2.159-1.423-3.937-3.15-3.937zm-8.4 2.625c-1.727 0-3.15 1.778-3.15 3.938 0 2.159 1.423 3.937 3.15 3.937 1.727 0 3.15-1.778 3.15-3.938 0-2.159-1.423-3.937-3.15-3.937zm8.4 0c.592 0 1.05.572 1.05 1.313 0 .74-.458 1.312-1.05 1.312-.592 0-1.05-.572-1.05-1.313 0-.74.458-1.312 1.05-1.312zm8.4 0c-1.727 0-3.15 1.778-3.15 3.938 0 2.159 1.423 3.937 3.15 3.937 1.727 0 3.15-1.778 3.15-3.938 0-2.159-1.423-3.937-3.15-3.937zM11.55 10.5c.592 0 1.05.572 1.05 1.313 0 .74-.458 1.312-1.05 1.312-.592 0-1.05-.572-1.05-1.313 0-.74.458-1.312 1.05-1.312zm16.8 0c.592 0 1.05.572 1.05 1.313 0 .74-.458 1.312-1.05 1.312-.592 0-1.05-.572-1.05-1.313 0-.74.458-1.312 1.05-1.312zm6.3 5.25c-1.727 0-3.15 1.778-3.15 3.938 0 2.159 1.423 3.937 3.15 3.937 1.727 0 3.15-1.778 3.15-3.938 0-2.159-1.423-3.937-3.15-3.937zm0 2.625c.592 0 1.05.572 1.05 1.313 0 .74-.458 1.312-1.05 1.312-.592 0-1.05-.572-1.05-1.313 0-.74.458-1.312 1.05-1.312zm-6.3 7.875c-1.727 0-3.15 1.778-3.15 3.938 0 2.159 1.423 3.937 3.15 3.937 1.727 0 3.15-1.778 3.15-3.938 0-2.159-1.423-3.937-3.15-3.937zm0 2.625c.592 0 1.05.572 1.05 1.313 0 .74-.458 1.312-1.05 1.312-.592 0-1.05-.572-1.05-1.313 0-.74.458-1.312 1.05-1.312z"/></mask><path d="M21 0C9.534 0 0 9.228 0 21v.005c.004 1.31.13 2.618.377 3.902.035.18.1.348.19.494.09.146.203.267.333.355a.858.858 0 00.855.079c.351-.158.703-.3 1.063-.426 6.818-2.282 13.412 1.711 14.888 8.603.42 1.978.389 4.076-.098 6.148a1.606 1.606 0 00.136 1.103c.086.16.2.294.332.393.133.1.28.16.434.18.824.104 1.652.158 2.482.164H21c11.466 0 21-9.228 21-21S32.466 0 21 0zm0 2.625c10.57 0 18.9 8.4 18.9 18.375 0 9.972-8.326 18.37-18.892 18.375-.454-.003-.905-.057-1.357-.092.278-1.995.491-4.018.082-5.948-1.824-8.508-9.706-13.046-17.448-10.459-.07-.627-.183-1.25-.185-1.881.003-9.973 8.332-18.37 18.9-18.37zM19.95 5.25c-1.727 0-3.15 1.778-3.15 3.938 0 2.159 1.423 3.937 3.15 3.937 1.727 0 3.15-1.778 3.15-3.938 0-2.159-1.423-3.937-3.15-3.937zm-8.4 2.625c-1.727 0-3.15 1.778-3.15 3.938 0 2.159 1.423 3.937 3.15 3.937 1.727 0 3.15-1.778 3.15-3.938 0-2.159-1.423-3.937-3.15-3.937zm8.4 0c.592 0 1.05.572 1.05 1.313 0 .74-.458 1.312-1.05 1.312-.592 0-1.05-.572-1.05-1.313 0-.74.458-1.312 1.05-1.312zm8.4 0c-1.727 0-3.15 1.778-3.15 3.938 0 2.159 1.423 3.937 3.15 3.937 1.727 0 3.15-1.778 3.15-3.938 0-2.159-1.423-3.937-3.15-3.937zM11.55 10.5c.592 0 1.05.572 1.05 1.313 0 .74-.458 1.312-1.05 1.312-.592 0-1.05-.572-1.05-1.313 0-.74.458-1.312 1.05-1.312zm16.8 0c.592 0 1.05.572 1.05 1.313 0 .74-.458 1.312-1.05 1.312-.592 0-1.05-.572-1.05-1.313 0-.74.458-1.312 1.05-1.312zm6.3 5.25c-1.727 0-3.15 1.778-3.15 3.938 0 2.159 1.423 3.937 3.15 3.937 1.727 0 3.15-1.778 3.15-3.938 0-2.159-1.423-3.937-3.15-3.937zm0 2.625c.592 0 1.05.572 1.05 1.313 0 .74-.458 1.312-1.05 1.312-.592 0-1.05-.572-1.05-1.313 0-.74.458-1.312 1.05-1.312zm-6.3 7.875c-1.727 0-3.15 1.778-3.15 3.938 0 2.159 1.423 3.937 3.15 3.937 1.727 0 3.15-1.778 3.15-3.938 0-2.159-1.423-3.937-3.15-3.937zm0 2.625c.592 0 1.05.572 1.05 1.313 0 .74-.458 1.312-1.05 1.312-.592 0-1.05-.572-1.05-1.313 0-.74.458-1.312 1.05-1.312z" fill="#00C35B"/><path d="M0 21.005h-4v.014l4-.014zm.377 3.902l-3.928.754 3.928-.754zm1.378.928l-1.64-3.649-.007.004 1.647 3.645zm1.063-.426l-1.27-3.793-.021.007-.02.008 1.31 3.778zm14.888 8.603l3.913-.83-.001-.008-3.912.838zm-.098 6.148l3.894.916v-.002l-3.894-.914zm.902 1.676l.502-3.968h-.003l-.499 3.968zm2.482.164l-.03 4h.03v-4zm.016-2.625l-.03 4h.032l-.002-4zm-1.357-.092l-3.962-.554-.589 4.211 4.24.33.31-3.987zm.082-5.948l3.912-.83-.001-.008-3.911.838zM2.285 22.876l-3.976.439.543 4.926 4.7-1.57-1.267-3.794zM2.1 20.995l-4-.001v.014l4-.013zM21 0v-4C7.363-4-4 6.981-4 21h8c0-9.525 7.705-17 17-17V0zM0 21h-4v.005h8V21H0zm0 .005l-4 .014c.005 1.557.156 3.113.45 4.642l3.927-.754 3.929-.754A17.086 17.086 0 014 20.992l-4 .013zm.377 3.902l-3.928.754c.12.625.352 1.253.712 1.838l3.405-2.098 3.406-2.098c.18.292.283.584.334.85l-3.929.754zm.19.494L-2.84 27.5c.36.585.858 1.14 1.505 1.575L.9 25.756l2.235-3.318c.386.26.657.573.837.865L.566 25.401zm.333.355l-2.234 3.318a4.9 4.9 0 002.288.819l.367-3.983.367-3.984a3.1 3.1 0 011.447.512L.9 25.756zm.421.154l-.367 3.983a4.859 4.859 0 002.449-.413l-1.648-3.645L.108 22.19a3.141 3.141 0 011.58-.264l-.367 3.984zm.434-.075l1.64 3.648c.264-.118.505-.215.735-.295L2.817 25.41l-1.312-3.778c-.49.17-.953.359-1.39.555l1.64 3.649zm1.063-.426l1.27 3.793c4.464-1.494 8.71.995 9.707 5.648l3.911-.838 3.912-.838c-1.957-9.13-10.899-14.628-20.07-11.558l1.27 3.793zm14.888 8.603l-3.912.83c.291 1.376.278 2.878-.08 4.403l3.894.915 3.894.914c.615-2.617.665-5.312.117-7.892l-3.913.83zm-.098 6.148l-3.894-.916a5.63 5.63 0 00-.106 1.976l3.97-.49 3.97-.49c.033.274.02.555-.046.836l-3.894-.916zm-.03.57l-3.97.49c.08.655.28 1.317.614 1.938l3.522-1.895 3.522-1.896c.163.3.248.6.282.873l-3.97.49zm.166.533l-3.522 1.895a5.17 5.17 0 001.458 1.7l2.396-3.202 2.396-3.203c.378.283.632.613.794.914l-3.522 1.896zm.332.393L15.68 44.86a4.915 4.915 0 002.331.946l.5-3.97.498-3.968c.582.073 1.08.3 1.463.587l-2.396 3.202zm.434.18l-.501 3.968c.984.125 1.97.188 2.953.196l.03-4 .03-4a17.051 17.051 0 01-2.01-.133l-.502 3.969zm2.482.164v4H21v-8h-.008v4zM21 42v4c13.637 0 25-10.981 25-25h-8c0 9.525-7.705 17-17 17v4zm21-21h4C46 6.981 34.637-4 21-4v8c9.295 0 17 7.475 17 17h4zM21 2.625v4c8.425 0 14.9 6.673 14.9 14.375h8C43.9 8.753 33.716-1.375 21-1.375v4zM39.9 21h-4c0 7.7-6.472 14.371-14.893 14.375l.001 4 .002 4C33.72 43.37 43.9 33.244 43.9 21h-4zM21.008 39.375l.03-4c-.267-.002-.408-.028-1.077-.08l-.31 3.988-.311 3.988c.236.018.997.1 1.638.104l.03-4zm-1.357-.092l3.961.553c.278-1.989.604-4.643.033-7.331l-3.912.83-3.913.831c.248 1.171.149 2.564-.13 4.563l3.96.554zm.082-5.948l3.91-.838C21.349 21.782 11.143 15.7 1.018 19.083l1.268 3.794 1.267 3.793c5.36-1.79 10.919 1.202 12.27 7.504l3.91-.839zM2.285 22.876l3.976-.438c-.111-1.004-.16-1.106-.161-1.457l-4 .014-4 .013c.003.912.181 2.056.209 2.307l3.976-.439zM2.1 20.995l4 .001c.002-7.7 6.477-14.371 14.9-14.371v-8C8.287-1.375-1.897 8.75-1.9 20.994h4zM19.95 5.25v-4c-4.723 0-7.15 4.448-7.15 7.938h8c0-.222.077-.313.05-.28a.778.778 0 01-.24.184 1.42 1.42 0 01-.66.158v-4zM16.8 9.188h-4c0 3.489 2.427 7.937 7.15 7.937v-8c.27 0 .5.072.66.158a.778.778 0 01.24.184c.027.033-.05-.058-.05-.28h-4zm3.15 3.937v4c4.723 0 7.15-4.448 7.15-7.938h-8c0 .222-.077.313-.05.28a.778.778 0 01.24-.184c.16-.086.39-.158.66-.158v4zm3.15-3.938h4c0-3.489-2.427-7.937-7.15-7.937v8c-.27 0-.5-.072-.66-.158a.778.778 0 01-.24-.184c-.027-.033.05.058.05.28h4zM11.55 7.875v-4c-4.723 0-7.15 4.448-7.15 7.938h8c0-.222.077-.313.05-.28a.78.78 0 01-.24.184 1.42 1.42 0 01-.66.158v-4zM8.4 11.813h-4c0 3.489 2.427 7.937 7.15 7.937v-8c.27 0 .5.072.66.158a.78.78 0 01.24.184c.027.033-.05-.058-.05-.28h-4zm3.15 3.937v4c4.723 0 7.15-4.448 7.15-7.938h-8c0 .222-.077.313-.05.28a.78.78 0 01.24-.184c.16-.086.39-.158.66-.158v4zm3.15-3.938h4c0-3.489-2.427-7.937-7.15-7.937v8c-.27 0-.5-.072-.66-.158a.78.78 0 01-.24-.184c-.027-.033.05.058.05.28h4zm5.25-3.937v4a3.05 3.05 0 01-2.376-1.123A2.517 2.517 0 0117 9.187h8c0-2.07-1.462-5.312-5.05-5.312v4zM21 9.188h-4c0-.434.133-1.014.574-1.565A3.05 3.05 0 0119.95 6.5v8c3.588 0 5.05-3.242 5.05-5.313h-4zM19.95 10.5v-4a3.05 3.05 0 012.376 1.123c.441.55.574 1.131.574 1.564h-8c0 2.071 1.462 5.313 5.05 5.313v-4zM18.9 9.187h4c0 .434-.133 1.014-.574 1.565a3.05 3.05 0 01-2.376 1.123v-8c-3.588 0-5.05 3.242-5.05 5.313h4zm9.45-1.312v-4c-4.723 0-7.15 4.448-7.15 7.938h8c0-.222.077-.313.05-.28a.78.78 0 01-.24.184 1.42 1.42 0 01-.66.158v-4zm-3.15 3.938h-4c0 3.489 2.427 7.937 7.15 7.937v-8c.27 0 .5.072.66.158a.78.78 0 01.24.184c.027.033-.05-.058-.05-.28h-4zm3.15 3.937v4c4.723 0 7.15-4.448 7.15-7.938h-8c0 .222-.077.313-.05.28a.78.78 0 01.24-.184c.16-.086.39-.158.66-.158v4zm3.15-3.938h4c0-3.489-2.427-7.937-7.15-7.937v8c-.27 0-.5-.072-.66-.158a.78.78 0 01-.24-.184c-.027-.033.05.058.05.28h4zM11.55 10.5v4a3.05 3.05 0 01-2.376-1.123 2.517 2.517 0 01-.574-1.565h8c0-2.07-1.462-5.312-5.05-5.312v4zm1.05 1.313h-4c0-.434.133-1.014.574-1.565a3.05 3.05 0 012.376-1.123v8c3.588 0 5.05-3.242 5.05-5.313h-4zm-1.05 1.312v-4a3.05 3.05 0 012.376 1.123c.441.55.574 1.131.574 1.565h-8c0 2.07 1.462 5.312 5.05 5.312v-4zm-1.05-1.313h4c0 .434-.133 1.014-.574 1.565A3.05 3.05 0 0111.55 14.5v-8c-3.588 0-5.05 3.242-5.05 5.313h4zM28.35 10.5v4a3.05 3.05 0 01-2.376-1.123 2.517 2.517 0 01-.574-1.565h8c0-2.07-1.462-5.312-5.05-5.312v4zm1.05 1.313h-4c0-.434.133-1.014.574-1.565a3.05 3.05 0 012.376-1.123v8c3.588 0 5.05-3.242 5.05-5.313h-4zm-1.05 1.312v-4a3.05 3.05 0 012.376 1.123c.441.55.574 1.131.574 1.565h-8c0 2.07 1.462 5.312 5.05 5.312v-4zm-1.05-1.313h4c0 .434-.133 1.014-.574 1.565A3.05 3.05 0 0128.35 14.5v-8c-3.588 0-5.05 3.242-5.05 5.313h4zm7.35 3.938v-4c-4.723 0-7.15 4.448-7.15 7.938h8c0-.222.077-.313.05-.28a.78.78 0 01-.24.184 1.42 1.42 0 01-.66.158v-4zm-3.15 3.938h-4c0 3.489 2.427 7.937 7.15 7.937v-8c.27 0 .5.072.66.158a.78.78 0 01.24.184c.027.033-.05-.058-.05-.28h-4zm3.15 3.937v4c4.723 0 7.15-4.448 7.15-7.938h-8c0 .222-.077.313-.05.28a.78.78 0 01.24-.184c.16-.086.39-.158.66-.158v4zm3.15-3.938h4c0-3.489-2.427-7.937-7.15-7.937v8c-.27 0-.5-.073-.66-.158a.78.78 0 01-.24-.184c-.027-.033.05.058.05.28h4zm-3.15-1.312v4a3.05 3.05 0 01-2.376-1.123 2.517 2.517 0 01-.574-1.564h8c0-2.071-1.462-5.313-5.05-5.313v4zm1.05 1.313h-4c0-.434.133-1.014.574-1.565A3.05 3.05 0 0134.65 17v8c3.588 0 5.05-3.242 5.05-5.313h-4zM34.65 21v-4a3.05 3.05 0 012.376 1.123c.441.55.574 1.131.574 1.564h-8c0 2.071 1.462 5.313 5.05 5.313v-4zm-1.05-1.313h4c0 .434-.133 1.014-.574 1.565a3.05 3.05 0 01-2.376 1.123v-8c-3.588 0-5.05 3.242-5.05 5.313h4zm-5.25 6.563v-4c-4.723 0-7.15 4.448-7.15 7.938h8c0-.222.077-.313.05-.28a.78.78 0 01-.24.184 1.42 1.42 0 01-.66.158v-4zm-3.15 3.938h-4c0 3.489 2.427 7.937 7.15 7.937v-8c.27 0 .5.072.66.158a.78.78 0 01.24.184c.027.033-.05-.058-.05-.28h-4zm3.15 3.937v4c4.723 0 7.15-4.448 7.15-7.938h-8c0 .222-.077.313-.05.28a.78.78 0 01.24-.184c.16-.086.39-.158.66-.158v4zm3.15-3.938h4c0-3.489-2.427-7.937-7.15-7.937v8c-.27 0-.5-.073-.66-.158a.78.78 0 01-.24-.184c-.027-.033.05.058.05.28h4zm-3.15-1.312v4a3.05 3.05 0 01-2.376-1.123 2.517 2.517 0 01-.574-1.564h8c0-2.071-1.462-5.313-5.05-5.313v4zm1.05 1.313h-4c0-.434.133-1.014.574-1.565A3.05 3.05 0 0128.35 27.5v8c3.588 0 5.05-3.242 5.05-5.313h-4zM28.35 31.5v-4a3.05 3.05 0 012.376 1.123c.441.55.574 1.131.574 1.564h-8c0 2.071 1.462 5.313 5.05 5.313v-4zm-1.05-1.313h4c0 .434-.133 1.014-.574 1.565a3.05 3.05 0 01-2.376 1.123v-8c-3.588 0-5.05 3.242-5.05 5.313h4z" fill="#00C35B" mask="url(#a)"/></svg>