<svg width="42" height="42" fill="none" xmlns="http://www.w3.org/2000/svg"><path d="M41.843 20.175c-.424-1.025-1.333-1.27-1.948-1.33V12.6c0-2.316-1.882-4.2-4.197-4.2H23.106V5.481a3.126 3.126 0 001.05-2.331A3.151 3.151 0 0021.008 0a3.147 3.147 0 00-3.148 3.15c0 .928.409 1.756 1.049 2.331V8.4H6.317a4.203 4.203 0 00-4.197 4.2v6.294l-.172.012A2.098 2.098 0 000 21v4.2a2.1 2.1 0 002.099 2.1h.02v10.5c0 2.316 1.883 4.2 4.198 4.2h29.381a4.203 4.203 0 004.197-4.2V27.3a2.098 2.098 0 002.1-2.1v-4.07a2.113 2.113 0 00-.152-.955zM6.317 37.8V12.6h29.381l.002 8.392-.002.008v4.2l.002.01.002 12.59H6.317z" fill="#05A14E"/><path d="M13.662 25.2c1.74 0 3.149-1.88 3.149-4.2 0-2.32-1.41-4.2-3.149-4.2-1.738 0-3.148 1.88-3.148 4.2 0 2.32 1.41 4.2 3.148 4.2zm14.691 0c1.739 0 3.148-1.88 3.148-4.2 0-2.32-1.409-4.2-3.148-4.2-1.738 0-3.148 1.88-3.148 4.2 0 2.32 1.41 4.2 3.148 4.2zm-15.74 4.2h16.79v4.2h-16.79v-4.2z" fill="#05A14E"/></svg>