<svg width="43" height="44" fill="none" xmlns="http://www.w3.org/2000/svg"><path d="M21.5 9.778c-1.433 0-2.389.978-2.389 2.444v12.223c0 1.466.956 2.444 2.389 2.444 1.433 0 2.389-.978 2.389-2.444V12.222c0-1.466-.956-2.444-2.389-2.444zm0 24.444c1.32 0 2.389-1.094 2.389-2.444 0-1.35-1.07-2.445-2.389-2.445-1.32 0-2.389 1.095-2.389 2.445 0 1.35 1.07 2.444 2.389 2.444z" fill="#00C35B"/><path d="M21.5 0C9.556 0 0 9.778 0 22c0 4.4 1.433 8.8 3.822 12.467L.478 40.333a2.264 2.264 0 000 2.445C.956 43.51 1.433 44 2.388 44H21.5C33.444 44 43 34.222 43 22S33.444 0 21.5 0zm0 39.111H6.689l2.15-3.667c.478-.977.478-1.955-.239-2.688C6.211 29.822 4.778 25.91 4.778 22c0-9.533 7.405-17.111 16.722-17.111S38.222 12.467 38.222 22c0 9.533-7.405 17.111-16.722 17.111z" fill="#00C35B"/></svg>