<svg width="43" height="44" viewBox="0 0 43 44" fill="none" xmlns="http://www.w3.org/2000/svg">
<path d="M21.5 9.77783C20.0666 9.77783 19.1111 10.7556 19.1111 12.2223V24.4445C19.1111 25.9112 20.0666 26.8889 21.5 26.8889C22.9333 26.8889 23.8889 25.9112 23.8889 24.4445V12.2223C23.8889 10.7556 22.9333 9.77783 21.5 9.77783Z" fill="#00C35B"/>
<path d="M21.5 34.2221C22.8193 34.2221 23.8889 33.1277 23.8889 31.7777C23.8889 30.4277 22.8193 29.3333 21.5 29.3333C20.1806 29.3333 19.1111 30.4277 19.1111 31.7777C19.1111 33.1277 20.1806 34.2221 21.5 34.2221Z" fill="#00C35B"/>
<path d="M21.5 0C9.55556 0 0 9.77778 0 22C0 26.4 1.43333 30.8 3.82222 34.4667L0.477778 40.3333C1.06792e-07 41.0667 1.06792e-07 42.0444 0.477778 42.7778C0.955556 43.5111 1.43333 44 2.38889 44H21.5C33.4444 44 43 34.2222 43 22C43 9.77778 33.4444 0 21.5 0ZM21.5 39.1111H6.68889L8.83889 35.4444C9.31667 34.4667 9.31667 33.4889 8.6 32.7556C6.21111 29.8222 4.77778 25.9111 4.77778 22C4.77778 12.4667 12.1833 4.88889 21.5 4.88889C30.8167 4.88889 38.2222 12.4667 38.2222 22C38.2222 31.5333 30.8167 39.1111 21.5 39.1111Z" fill="#00C35B"/>
</svg>
