<svg width="25" height="24" viewBox="0 0 25 24" fill="none" xmlns="http://www.w3.org/2000/svg">
<path d="M22.0275 9.8777H6.02755L11.1975 3.0877C11.4715 2.66492 11.5759 2.15432 11.4897 1.65794C11.4035 1.16157 11.1332 0.715997 10.7328 0.410293C10.3323 0.10459 9.83127 -0.0387245 9.32973 0.00899758C8.8282 0.0567197 8.36315 0.291962 8.02755 0.667703L0.407549 10.6677C0.143147 11.0157 0 11.4407 0 11.8777C0 12.3147 0.143147 12.7397 0.407549 13.0877L8.02755 23.0877C8.35731 23.4835 8.82707 23.7367 9.33894 23.7947C9.8508 23.8527 10.3653 23.7109 10.7752 23.399C11.1852 23.087 11.4589 22.6289 11.5395 22.1201C11.62 21.6113 11.5011 21.091 11.2075 20.6677L6.02755 13.8777H22.0275C22.558 13.8777 23.0667 13.667 23.4418 13.2919C23.8168 12.9168 24.0275 12.4081 24.0275 11.8777C24.0275 11.3473 23.8168 10.8386 23.4418 10.4635C23.0667 10.0884 22.558 9.8777 22.0275 9.8777Z" fill="white"/>
</svg>
